<svg width="24" height="24" viewBox="0 0 24 24" fill="none" xmlns="http://www.w3.org/2000/svg">
<path d="M12 0C18.6274 0 24 5.37258 24 12C24 18.6274 18.6274 24 12 24C5.37258 24 0 18.6274 0 12C0 5.37258 5.37258 0 12 0ZM18.207 7.79297C17.8409 7.42685 17.2619 7.40426 16.8691 7.72461L16.793 7.79297L10 14.5859L7.20703 11.793L7.13086 11.7246C6.73809 11.4043 6.15908 11.4269 5.79297 11.793C5.42685 12.1591 5.40426 12.7381 5.72461 13.1309L5.79297 13.207L9.29297 16.707L9.36914 16.7754C9.76191 17.0957 10.3409 17.0731 10.707 16.707L18.207 9.20703L18.2754 9.13086C18.5957 8.73809 18.5731 8.15908 18.207 7.79297Z" fill="white"/>
</svg>
