<svg width="24" height="24" viewBox="0 0 24 24" fill="none" xmlns="http://www.w3.org/2000/svg">
<path d="M12.9852 1.02783C13.5709 1.02783 14.0603 1.17502 14.453 1.43408C14.8412 1.69029 15.0916 2.02712 15.2508 2.34229C15.4085 2.65432 15.4835 2.95741 15.5204 3.17627C15.5391 3.28748 15.5485 3.38215 15.5536 3.45166C15.5561 3.48644 15.5577 3.51549 15.5584 3.5376C15.5588 3.54862 15.5593 3.55834 15.5594 3.56592V4.06494L16.869 4.86572L17.2743 4.63525H17.2752L17.2772 4.63428C17.2781 4.63375 17.279 4.63294 17.2801 4.63232C17.2826 4.63093 17.2856 4.62924 17.2889 4.62744C17.2955 4.62381 17.3036 4.6189 17.3133 4.61377C17.3329 4.60343 17.3589 4.58988 17.3905 4.57471C17.4533 4.54449 17.5404 4.50656 17.6463 4.46729C17.855 4.38991 18.1562 4.30347 18.5057 4.28271C18.8582 4.26182 19.2758 4.30701 19.6932 4.51123C20.116 4.71812 20.4914 5.06489 20.786 5.56982L21.6981 7.1333L21.7997 7.32178C22.0189 7.76134 22.1057 8.19281 22.079 8.604C22.0487 9.06822 21.8773 9.45306 21.6815 9.74658C21.4875 10.0371 21.2609 10.2528 21.0887 10.3931C21.0013 10.4643 20.924 10.5193 20.8661 10.5581C20.837 10.5776 20.8117 10.5934 20.7928 10.605C20.7836 10.6107 20.7758 10.6158 20.7694 10.6196C20.7661 10.6216 20.7631 10.6231 20.7606 10.6245C20.7594 10.6252 20.7577 10.6259 20.7567 10.6265L20.7557 10.6274H20.7547L20.3426 10.8628V12.3677L20.7157 12.6284C20.7172 12.6294 20.7189 12.6304 20.7206 12.6313C20.7394 12.643 20.7638 12.6588 20.7928 12.6782C20.8507 12.717 20.928 12.772 21.0155 12.8433C21.1878 12.9836 21.4152 13.199 21.6092 13.4897C21.805 13.7832 21.9754 14.1673 22.0057 14.6313C22.0325 15.0426 21.9467 15.4749 21.7274 15.9146L21.6248 16.103L20.7127 17.6665C20.4181 18.1714 20.0428 18.5182 19.62 18.7251C19.2026 18.9292 18.7849 18.9746 18.4325 18.9536C18.083 18.9328 17.7818 18.8464 17.5731 18.769C17.4674 18.7298 17.381 18.6908 17.3182 18.6606C17.2868 18.6456 17.2606 18.6329 17.2411 18.6226C17.2313 18.6174 17.2223 18.6125 17.2157 18.6089C17.2125 18.6071 17.2093 18.6054 17.2069 18.604C17.2058 18.6034 17.2049 18.6026 17.204 18.6021L17.202 18.6011C17.2017 18.6009 17.2012 18.6007 17.5731 17.9497L17.201 18.6001L16.7704 18.354L15.4139 19.0757V19.5278H14.6639C15.4003 19.5278 15.4137 19.5284 15.4139 19.5288V19.5454C15.4138 19.553 15.4133 19.5627 15.4129 19.5737C15.4122 19.5959 15.4106 19.6249 15.4081 19.6597C15.403 19.7292 15.3936 19.8238 15.3748 19.9351C15.338 20.1539 15.2629 20.457 15.1053 20.769C14.9461 21.0842 14.6956 21.4211 14.3075 21.6772C13.9639 21.9039 13.5459 22.045 13.0545 22.0767L12.8397 22.0835H11.0155C10.4298 22.0835 9.9404 21.9363 9.5477 21.6772C9.15934 21.421 8.90913 21.0842 8.74985 20.769C8.5922 20.457 8.5172 20.1539 8.48032 19.9351C8.46159 19.8238 8.45116 19.7292 8.44614 19.6597C8.44363 19.6249 8.44298 19.5959 8.44223 19.5737C8.44186 19.5627 8.44138 19.553 8.44126 19.5454V19.5288C8.44463 19.5285 8.49343 19.5278 9.19126 19.5278H8.44126V19.0454L7.12973 18.2437L6.72641 18.4751L6.35434 17.8247L6.72544 18.4761L6.72348 18.4771C6.72254 18.4776 6.72165 18.4784 6.72055 18.479C6.71812 18.4804 6.71496 18.4821 6.71176 18.4839C6.70512 18.4875 6.69617 18.4924 6.68637 18.4976C6.66695 18.5078 6.64132 18.5207 6.6102 18.5356C6.54738 18.5658 6.46022 18.6048 6.35434 18.644C6.14563 18.7214 5.84448 18.8079 5.49497 18.8286C5.14248 18.8495 4.72488 18.8042 4.30747 18.6001C3.9374 18.419 3.60388 18.1307 3.32895 17.7231L3.21469 17.5415L2.30258 15.978C2.00815 15.4733 1.89109 14.9763 1.92172 14.5063C1.95206 14.0423 2.12242 13.6582 2.31821 13.3647C2.51222 13.074 2.73967 12.8586 2.91196 12.7183C2.99941 12.647 3.07671 12.592 3.13462 12.5532C3.16362 12.5338 3.18805 12.518 3.20688 12.5063C3.21467 12.5015 3.22157 12.4971 3.22739 12.4937L3.73129 12.186V10.7378L3.31919 10.5034L3.69126 9.85205C3.31927 10.5031 3.31854 10.5026 3.31821 10.5024H3.31723L3.31626 10.5015C3.31521 10.5009 3.31359 10.5002 3.31235 10.4995C3.31003 10.4982 3.30751 10.4964 3.30454 10.4946C3.29804 10.4908 3.28951 10.4858 3.28012 10.48C3.2613 10.4684 3.23689 10.4525 3.20786 10.4331C3.14999 10.3944 3.07262 10.3393 2.9852 10.2681C2.81295 10.1277 2.58544 9.91225 2.39145 9.62158C2.19568 9.32817 2.02531 8.94397 1.99497 8.47998C1.96434 8.00998 2.08136 7.51306 2.37583 7.0083L3.28794 5.44482L3.40219 5.26318C3.67706 4.85573 4.00978 4.56728 4.37973 4.38623C4.79726 4.18195 5.21563 4.13677 5.56821 4.15771C5.91745 4.1785 6.21797 4.26496 6.42661 4.34229C6.53262 4.38159 6.61959 4.42045 6.68247 4.45068C6.71396 4.46582 6.74006 4.47844 6.75962 4.48877C6.76933 4.4939 6.77742 4.49881 6.78403 4.50244C6.78729 4.50424 6.79034 4.50593 6.79282 4.50732C6.79407 4.50803 6.79567 4.50868 6.79672 4.50928L6.7977 4.51025H6.79868C6.79898 4.51043 6.79941 4.51071 6.51743 5.00439L6.79965 4.51025L7.22934 4.75635L8.58676 4.03467V3.56592C8.58689 3.55834 8.58737 3.54862 8.58774 3.5376C8.58849 3.51549 8.59012 3.48644 8.59262 3.45166C8.59764 3.38215 8.6071 3.28748 8.62583 3.17627C8.6627 2.95741 8.73771 2.65432 8.89536 2.34229C9.0546 2.02712 9.30495 1.69028 9.69321 1.43408C10.0859 1.17502 10.5753 1.02784 11.161 1.02783H12.9852ZM11.161 2.52783C10.8346 2.52784 10.6397 2.60664 10.5194 2.68604C10.3947 2.76827 10.303 2.883 10.2342 3.01904C10.1641 3.15801 10.1255 3.30587 10.1053 3.42529C10.0956 3.48309 10.0908 3.52985 10.0887 3.55908C10.0877 3.57356 10.0869 3.5841 10.0868 3.58838V4.48584C10.0867 4.7284 9.9695 4.95356 9.77622 5.09326L9.6893 5.14795L7.56919 6.2749C7.34195 6.39576 7.06906 6.39178 6.84555 6.26416L6.05551 5.81299C6.05073 5.81051 6.04305 5.80706 6.03305 5.80225C6.00597 5.78923 5.96146 5.76942 5.90512 5.74854C5.78926 5.70562 5.63848 5.66429 5.47934 5.65479C5.32296 5.6455 5.17413 5.66773 5.03891 5.73389C4.9415 5.78161 4.82438 5.86465 4.70395 6.02002L4.58286 6.20068L3.67075 7.76416C3.50943 8.0408 3.48202 8.24353 3.49106 8.38232C3.50055 8.52688 3.55448 8.66115 3.6395 8.78857C3.72641 8.91882 3.83707 9.02726 3.93247 9.10498C3.97853 9.14249 4.017 9.17037 4.04184 9.18701C4.05417 9.19527 4.06338 9.20027 4.06723 9.20264L4.06528 9.20166L4.85337 9.65186C5.08691 9.78542 5.23129 10.0342 5.23129 10.3032V12.6089C5.2312 12.8704 5.09422 13.1124 4.87094 13.2485L4.00864 13.7749C4.0032 13.7782 3.99756 13.7815 3.99204 13.7847L3.99399 13.7837C3.99012 13.7861 3.98165 13.7912 3.96958 13.7993C3.94471 13.816 3.90548 13.8437 3.85922 13.8813C3.76381 13.9591 3.65317 14.0675 3.56626 14.1978C3.48129 14.3251 3.42829 14.4595 3.41879 14.604C3.40974 14.7429 3.43699 14.9454 3.59848 15.2222L4.51059 16.7856L4.63169 16.9663C4.75218 17.1217 4.86923 17.2048 4.96665 17.2524C5.10182 17.3185 5.24979 17.3408 5.4061 17.3315C5.56553 17.3221 5.71687 17.2808 5.83286 17.2378C5.88911 17.2169 5.93276 17.1971 5.95981 17.1841C5.9706 17.1789 5.97848 17.1748 5.98325 17.1724L6.77231 16.7222L6.86411 16.6772C7.08232 16.5893 7.33194 16.6081 7.53598 16.7329L9.58286 17.9858C9.8054 18.1221 9.94118 18.3645 9.94126 18.6255V19.5278C9.94148 19.5331 9.94146 19.5416 9.94223 19.5522C9.94435 19.5815 9.9491 19.6283 9.95883 19.686C9.97898 19.8055 10.0185 19.9533 10.0887 20.0923C10.1575 20.2283 10.2492 20.3431 10.3739 20.4253C10.4942 20.5046 10.6892 20.5835 11.0155 20.5835H12.8397L13.0604 20.5698C13.2586 20.544 13.391 20.4848 13.4813 20.4253C13.6059 20.3431 13.6977 20.2283 13.7665 20.0923C13.8366 19.9533 13.8752 19.8054 13.8954 19.686C13.9051 19.6283 13.9098 19.5815 13.912 19.5522L13.9139 19.5259V18.6255C13.914 18.3483 14.0667 18.0936 14.3114 17.9634L16.4305 16.8364L16.5184 16.7964C16.726 16.718 16.9596 16.7355 17.1551 16.8472L17.9432 17.2974C17.9479 17.2998 17.9562 17.3036 17.9676 17.3091C17.9947 17.3221 18.0383 17.3419 18.0946 17.3628C18.2106 17.4058 18.3619 17.4471 18.5213 17.4565C18.6776 17.4658 18.8256 17.4435 18.9608 17.3774C19.0907 17.3139 19.2554 17.1873 19.4168 16.9106L20.329 15.3472L20.4266 15.1538C20.5021 14.9735 20.5154 14.8332 20.5086 14.729C20.4991 14.5845 20.4462 14.4501 20.3612 14.3228C20.2743 14.1925 20.1636 14.0841 20.0682 14.0063C20.022 13.9687 19.9827 13.941 19.9579 13.9243L19.9334 13.9087L19.9354 13.9097C19.9164 13.8988 19.8977 13.887 19.8797 13.8745L19.1629 13.3745C18.962 13.2343 18.8427 13.0043 18.8426 12.7593V10.4282C18.8426 10.1591 18.9868 9.91038 19.2206 9.77686L20.0096 9.32568C20.0142 9.32282 20.0216 9.31839 20.0311 9.31201C20.056 9.29535 20.0952 9.26768 20.1415 9.22998C20.2368 9.15226 20.3475 9.04381 20.4344 8.91357C20.5194 8.78609 20.5725 8.65097 20.5819 8.50635C20.5886 8.40226 20.5752 8.26246 20.4998 8.08252L20.4022 7.88916L19.4901 6.32568C19.3287 6.04908 19.1639 5.92247 19.034 5.85889C18.8989 5.79276 18.7509 5.77054 18.5946 5.77979C18.4351 5.78925 18.2838 5.83054 18.1678 5.87354C18.1116 5.89439 18.068 5.91423 18.0409 5.92725C18.031 5.93198 18.0233 5.93548 18.0184 5.93799L17.2284 6.38916C17.0205 6.5079 16.7701 6.5199 16.5545 6.42529L16.4647 6.37744L14.4178 5.12549C14.1952 4.98925 14.0595 4.74682 14.0594 4.48584V3.58838C14.0593 3.5841 14.0585 3.57356 14.0575 3.55908C14.0553 3.52985 14.0506 3.4831 14.0409 3.42529C14.0207 3.30587 13.9821 3.15801 13.912 3.01904C13.8432 2.883 13.7514 2.76827 13.6268 2.68604C13.5065 2.60664 13.3116 2.52783 12.9852 2.52783H11.161ZM17.9432 17.2964L17.9442 17.2974H17.9432L17.9413 17.2964C17.9401 17.2958 17.9396 17.2946 17.9393 17.2944L17.9432 17.2964ZM5.98618 17.1714C5.98543 17.1718 5.9843 17.1718 5.98325 17.1724L5.98422 17.1714L5.98813 17.1694C5.98781 17.1696 5.98728 17.1708 5.98618 17.1714ZM15.1297 11.5552C15.1295 9.90003 13.7709 8.54541 12.079 8.54541C10.3871 8.5456 9.02938 9.90014 9.02915 11.5552C9.02915 13.2104 10.387 14.5657 12.079 14.5659C13.7711 14.5659 15.1297 13.2105 15.1297 11.5552ZM20.0067 9.32764L20.0047 9.32861L20.0057 9.32764L20.0077 9.32666L20.0086 9.32568H20.0096C20.0084 9.32642 20.0075 9.32714 20.0067 9.32764ZM16.6297 11.5552C16.6297 14.0538 14.5846 16.0659 12.079 16.0659C9.57344 16.0657 7.52915 14.0537 7.52915 11.5552C7.52938 9.0569 9.57359 7.0456 12.079 7.04541C14.5845 7.04541 16.6295 9.05678 16.6297 11.5552Z" fill="white"/>
</svg>
