<svg width="24" height="24" viewBox="0 0 24 24" fill="none" xmlns="http://www.w3.org/2000/svg">
<path d="M11.9999 9.36984V13.1586M10.074 2.66675H13.9258M16.9642 7.41026L18.0794 6.3062C18.2407 6.14658 18.5003 6.14616 18.662 6.30526V6.30526C18.8273 6.46785 18.8273 6.73426 18.6618 6.89662C18.1903 7.35914 17.5581 7.9788 17.5588 7.97952C17.3583 7.77251 17.183 7.58463 16.9642 7.41026ZM19.5554 13.0128C19.5554 17.1172 16.1727 20.4445 11.9999 20.4445C7.82707 20.4445 4.44434 17.1172 4.44434 13.0128C4.44434 8.90842 7.82707 5.58114 11.9999 5.58114C16.1727 5.58114 19.5554 8.90842 19.5554 13.0128Z" stroke="white" stroke-width="1.5" stroke-linecap="round"/>
</svg>
